<svg width="31" height="31" viewBox="0 0 31 31" fill="none" xmlns="http://www.w3.org/2000/svg">
<path d="M27.6415 14.6588H30.8706C30.8706 6.37597 24.6174 0.12915 16.3232 0.12915V3.35832C22.8817 3.35832 27.6415 8.11003 27.6415 14.6588Z" fill="#242732"/>
<path d="M16.3396 9.81669C19.7351 9.81669 21.1834 11.265 21.1834 14.6604H24.4126C24.4126 9.45341 21.5467 6.58752 16.3396 6.58752V9.81669ZM21.8648 18.6049C21.5545 18.3229 21.1468 18.1725 20.7278 18.1854C20.3087 18.1984 19.9111 18.3737 19.6189 18.6743L15.7552 22.6478C14.8252 22.4702 12.9555 21.8873 11.0309 19.9676C9.10632 18.0414 8.52345 16.1668 8.35069 15.2433L12.321 11.378C12.6219 11.086 12.7975 10.6883 12.8104 10.2691C12.8234 9.84994 12.6727 9.44217 12.3904 9.13211L6.42449 2.57205C6.14201 2.26102 5.7494 2.07235 5.33005 2.04612C4.9107 2.01989 4.49764 2.15817 4.17861 2.43159L0.674961 5.43633C0.395817 5.71648 0.229206 6.08934 0.206731 6.48419C0.182513 6.88784 -0.279258 16.4494 7.13491 23.8668C13.6029 30.3332 21.7049 30.8063 23.9363 30.8063C24.2624 30.8063 24.4626 30.7966 24.5159 30.7934C24.9107 30.7713 25.2834 30.6039 25.5622 30.3235L28.5653 26.8183C28.8389 26.4994 28.9774 26.0865 28.9515 25.6671C28.9256 25.2478 28.7372 24.8551 28.4264 24.5724L21.8648 18.6049Z" fill="#242732"/>
</svg>
